<svg width="24" height="24" viewBox="0 0 24 24" fill="none" xmlns="http://www.w3.org/2000/svg">
<path fill-rule="evenodd" clip-rule="evenodd" d="M5.53896 3.59141C4.99835 3.03854 4.12185 3.03854 3.58124 3.59141C3.04063 4.14428 3.04063 5.04064 3.58124 5.59351L10.0417 12.2004L3.97253 18.4071C3.43192 18.9599 3.43192 19.8563 3.97253 20.4091C4.51314 20.962 5.38964 20.962 5.93025 20.4091L11.9994 14.2025L18.0684 20.409C18.609 20.9619 19.4855 20.9619 20.0261 20.409C20.5667 19.8562 20.5667 18.9598 20.0261 18.407L13.9571 12.2004L20.4173 5.59364C20.958 5.04079 20.958 4.14441 20.4173 3.59154C19.8768 3.03868 19.0002 3.03868 18.4597 3.59154L11.9994 10.1983L5.53896 3.59141Z" fill="#393939"/>
</svg>
